<svg viewBox="0 0 576 512" fill="currentColor" xmlns="http://www.w3.org/2000/svg">
<path d="M560 160C558 160 556 160.4 554 161.2L384 224L373.7 220.4C397 185.5 416 149.2 416 123C416 55 358.7 0 288 0C217.3 0 160 55.1 160 123C160 134.8 164 148.8 170.4 163.6L20.1 216C8 220.8 0 232.6 0 245.7V496C0 505.2 7.5 512 16 512C18 512 20 511.6 22 510.8L192 448L364 508.7C377 513 391 513.1 404 508.9L555.9 456C568.1 451.1 576 439.4 576 426.3V176C576 166.8 568.5 160 560 160ZM176 419.8L31.9 473L30.6 246.1L176 195.6V419.8ZM288 32C340.9 32 384 72.8 384 123C384 150 345.9 211.9 288 279.8C230.1 211.9 192 150 192 123C192 72.8 235.1 32 288 32ZM368 476.2L208 419.7V228.8C232.4 264.1 260.1 296.8 275.7 314.5C278.9 318.2 283.5 320 288 320C292.5 320 297 318.2 300.3 314.5C313.1 300 334 275.4 354.6 247.6L368 252.3V476.2ZM400 476.4V252.2L544.1 199L545.4 425.9L400 476.4ZM312 128C312 114.7 301.2 104 288 104C274.8 104 264 114.7 264 128C264 141.2 274.8 152 288 152C301.2 152 312 141.3 312 128Z"/>
</svg>