<svg viewBox="0 0 576 512" fill="currentColor" xmlns="http://www.w3.org/2000/svg">
<path d="M570.53 242L512 190.75V48C512 43.7565 510.314 39.6868 507.314 36.6863C504.313 33.6857 500.244 32 496 32H400C395.757 32 391.687 33.6857 388.686 36.6863C385.686 39.6868 384 43.7565 384 48V78.75L298.53 3.99997C295.614 1.45119 291.873 0.0465088 288 0.0465088C284.127 0.0465088 280.386 1.45119 277.47 3.99997L5.47009 242C2.27556 244.794 0.321801 248.743 0.0386214 252.977C-0.244559 257.212 1.16604 261.385 3.96009 264.58C6.75415 267.774 10.7028 269.728 14.9374 270.011C19.1719 270.295 23.3456 268.884 26.5401 266.09L64.0001 233.27V464C64.0133 476.726 69.0747 488.928 78.0736 497.926C87.0725 506.925 99.2738 511.987 112 512H464C476.726 511.987 488.928 506.925 497.927 497.926C506.925 488.928 511.987 476.726 512 464V233.27L549.46 266.06C552.673 268.687 556.78 269.963 560.916 269.618C565.051 269.274 568.891 267.336 571.625 264.214C574.359 261.093 575.773 257.031 575.569 252.886C575.364 248.741 573.558 244.838 570.53 242ZM480 464C480 468.243 478.314 472.313 475.314 475.314C472.313 478.314 468.244 480 464 480H112C107.757 480 103.687 478.314 100.686 475.314C97.6858 472.313 96.0001 468.243 96.0001 464V205.27L288 37.27L480 205.27V464ZM480 162.75L416 106.75V64H480V162.75ZM208 218.67V325.34C208.024 332.403 210.84 339.171 215.835 344.165C220.829 349.16 227.597 351.976 234.66 352H341.3C348.37 351.984 355.146 349.172 360.148 344.176C365.151 339.181 367.974 332.409 368 325.34V218.67C367.979 211.598 365.158 204.822 360.155 199.824C355.151 194.826 348.372 192.013 341.3 192H234.66C227.594 192.021 220.824 194.838 215.828 199.835C210.833 204.833 208.019 211.604 208 218.67ZM240 224H336V320H240V224Z"/>
</svg>

